<?xml version="1.0" standalone="no"?>
<!DOCTYPE svg PUBLIC "-//W3C//DTD SVG 20010904//EN"
 "http://www.w3.org/TR/2001/REC-SVG-20010904/DTD/svg10.dtd">
<svg version="1.0" xmlns="http://www.w3.org/2000/svg"
 width="699.000000pt" height="1053.000000pt" viewBox="0 0 699.000000 1053.000000"
 preserveAspectRatio="xMidYMid meet">

<g transform="translate(0.000000,1053.000000) scale(0.100000,-0.100000)"
fill="#000000" stroke="none">
<path d="M0 5265 l0 -5265 3495 0 3495 0 0 5265 0 5265 -3495 0 -3495 0 0
-5265z m6940 1055 l0 -4160 -1977 -2 -1978 -3 -57 -27 c-43 -20 -64 -38 -92
-79 l-36 -53 -2 344 -3 345 -127 3 -128 3 0 125 c0 91 -3 126 -12 128 -257 78
-407 160 -581 317 -53 48 -83 69 -94 65 -8 -4 -58 -31 -110 -62 -51 -30 -97
-53 -102 -50 -7 5 -95 153 -181 306 -21 36 -53 93 -73 127 -25 45 -32 64 -24
71 7 5 58 35 115 67 65 38 101 64 98 72 -3 7 -13 50 -23 96 -14 63 -18 127
-18 277 0 188 4 222 40 360 5 23 -1 29 -72 70 -43 24 -95 54 -115 67 l-37 23
139 241 c77 133 143 246 149 252 5 5 51 -16 121 -57 l112 -66 72 68 c140 133
314 235 498 294 l98 31 0 128 0 129 130 0 130 0 0 518 0 517 288 145 c158 80
543 275 855 434 313 158 571 286 574 283 3 -3 -13 -39 -35 -79 -22 -40 -126
-244 -232 -453 -106 -209 -230 -452 -275 -540 -45 -88 -149 -290 -230 -450
-81 -159 -186 -364 -233 -455 -47 -91 -157 -307 -245 -480 -323 -637 -450
-885 -458 -895 -5 -5 -9 225 -9 533 l0 542 -23 0 c-47 0 -214 -33 -292 -57
-281 -88 -543 -312 -678 -580 -222 -437 -142 -976 197 -1331 190 -200 479
-336 746 -354 l45 -3 5 495 5 495 52 85 c28 47 189 299 357 560 167 261 412
644 544 850 466 729 1085 1697 1184 1850 55 85 117 181 137 213 20 32 114 178
208 325 254 394 228 342 228 452 0 86 -3 100 -27 142 -57 96 -149 148 -262
148 -82 0 -115 -17 -391 -197 -247 -161 -992 -646 -1270 -826 -93 -61 -300
-195 -458 -299 -159 -103 -293 -188 -298 -188 -5 0 -9 645 -9 1655 l0 1655
2070 0 2070 0 0 -4160z m-5451 3290 c34 -107 65 -198 69 -202 4 -4 106 -9 225
-10 l218 -3 -48 -36 c-26 -20 -95 -69 -152 -110 -57 -41 -115 -84 -130 -95
l-26 -22 64 -201 c36 -110 62 -203 59 -206 -5 -5 -157 100 -291 202 l-58 43
-65 -47 c-36 -27 -103 -75 -149 -108 -45 -33 -97 -71 -115 -84 l-33 -25 7 30
c4 16 34 112 67 213 l61 184 -24 19 c-12 9 -89 65 -170 123 -81 58 -150 110
-153 115 -4 6 76 10 213 10 l220 0 68 210 c37 116 71 207 75 203 3 -5 34 -96
68 -203z m3848 -1015 c83 -42 123 -110 123 -212 0 -91 -36 -152 -115 -198
-154 -90 -348 22 -348 201 0 134 99 234 233 234 40 0 71 -7 107 -25z m-393
-137 c-26 -79 10 -210 77 -276 59 -60 123 -86 211 -86 43 -1 78 -3 78 -5 0 -4
-328 -520 -456 -716 -46 -71 -118 -184 -160 -250 -41 -66 -138 -217 -214 -335
-76 -118 -176 -273 -221 -345 -46 -71 -106 -166 -134 -210 -106 -164 -219
-340 -455 -710 -134 -209 -320 -499 -413 -645 -93 -146 -193 -301 -221 -345
-29 -44 -74 -115 -100 -158 -27 -42 -52 -80 -57 -82 -8 -6 36 101 50 120 5 6
106 204 226 440 120 237 246 484 280 550 34 66 135 264 225 440 345 679 465
915 535 1050 210 406 465 915 459 915 -7 0 -609 -305 -1689 -855 -143 -73
-435 -221 -650 -330 -214 -109 -513 -260 -663 -337 -151 -77 -276 -138 -278
-135 -4 3 224 153 962 632 102 66 326 212 499 325 174 113 359 233 413 268 53
35 165 107 247 161 244 160 499 326 705 459 92 60 274 178 465 303 66 43 154
100 195 128 41 27 79 50 83 50 5 1 5 -9 1 -21z m-2081 -4193 c-3 -9 -8 -14
-10 -11 -3 3 -2 9 2 15 9 16 15 13 8 -4z m-361 -2174 c144 -37 236 -102 274
-194 10 -26 22 -47 25 -47 4 0 10 17 14 37 20 109 100 188 215 212 41 9 552
11 1980 9 l1925 -3 3 -1022 c2 -815 0 -1023 -10 -1023 -7 0 -1550 0 -3428 0
-1878 0 -3423 0 -3432 0 -17 0 -18 55 -18 1025 l0 1025 1188 0 c1143 0 1192
-1 1264 -19z"/>
<path d="M5520 9812 c-19 -9 -48 -36 -65 -60 l-30 -44 -3 -201 c-4 -218 2
-256 45 -307 88 -105 262 -96 334 18 l29 46 0 212 c0 126 -4 224 -11 241 -13
34 -55 80 -91 99 -39 20 -164 18 -208 -4z m134 -98 c14 -5 16 -35 16 -224 0
-185 -2 -221 -16 -234 -8 -9 -22 -16 -29 -16 -7 0 -21 7 -29 16 -14 13 -16 48
-16 228 0 151 3 215 12 224 13 13 37 15 62 6z"/>
<path d="M6010 9819 c-32 -13 -78 -56 -96 -91 -21 -40 -20 -457 0 -497 41 -79
134 -121 226 -102 105 21 160 90 168 207 l5 74 -82 0 -81 0 0 -65 c0 -52 -4
-69 -20 -85 -26 -26 -45 -25 -64 2 -13 19 -16 58 -16 225 0 214 4 233 50 233
35 0 50 -28 50 -91 l0 -59 80 0 80 0 0 43 c0 143 -72 218 -207 216 -37 0 -79
-5 -93 -10z"/>
<path d="M3550 9687 c0 -122 -2 -135 -18 -139 -15 -4 -17 -13 -14 -44 3 -21
11 -43 18 -49 10 -7 14 -49 16 -165 l3 -155 132 -3 c151 -3 184 7 241 73 l32
36 0 230 c0 250 -4 271 -56 320 -24 23 -33 24 -190 27 l-164 3 0 -134z m238
11 c9 -9 12 -71 12 -219 0 -203 0 -208 -22 -223 -12 -9 -33 -16 -45 -16 -22 0
-23 3 -23 100 0 55 -1 103 -2 108 -2 4 9 8 25 10 25 3 27 7 27 47 0 40 -2 44
-26 47 -25 3 -27 6 -26 56 1 110 -1 102 35 102 18 0 38 -5 45 -12z"/>
<path d="M4136 9812 c-2 -4 -14 -60 -25 -123 -10 -63 -35 -199 -54 -304 -20
-104 -37 -203 -39 -220 l-3 -30 72 -3 72 -3 6 48 c3 26 7 55 8 63 2 11 16 15
62 15 l60 0 3 -40 c6 -89 3 -86 95 -83 l82 3 -3 30 c-2 17 -31 170 -65 340
l-62 310 -102 3 c-56 1 -104 -1 -107 -6z m118 -154 c6 -40 26 -246 26 -270 0
-15 -9 -18 -46 -18 l-46 0 6 33 c3 17 13 89 22 160 17 127 29 156 38 95z"/>
<path d="M4520 9475 l0 -345 80 0 80 0 0 345 0 345 -80 0 -80 0 0 -345z"/>
<path d="M4930 9475 l0 -345 80 0 79 0 3 148 3 147 42 3 42 3 3 -148 3 -148
78 -3 77 -3 0 346 0 345 -80 0 -80 0 0 -131 0 -130 -42 3 -43 3 -3 128 -3 127
-79 0 -80 0 0 -345z"/>
<path d="M4160 9015 l0 -45 75 0 75 0 0 45 0 45 -75 0 -75 0 0 -45z"/>
<path d="M5550 9015 l0 -45 75 0 75 0 0 45 0 45 -75 0 -75 0 0 -45z"/>
<path d="M1486 1753 c-14 -43 -22 -81 -17 -86 4 -4 32 -7 61 -5 l53 3 52 75
c29 41 51 78 48 83 -2 4 -42 7 -88 7 l-83 0 -26 -77z"/>
<path d="M527 1583 c-4 -3 -7 -235 -7 -515 l0 -508 198 0 c227 0 269 9 332 69
59 56 81 169 62 308 -12 86 -38 128 -95 152 l-39 17 42 28 c52 34 69 73 77
175 10 140 -36 232 -134 265 -36 12 -90 16 -238 16 -105 0 -195 -3 -198 -7z
m338 -183 c11 -9 15 -34 15 -92 0 -70 -3 -82 -25 -103 -18 -18 -35 -25 -65
-25 l-40 0 0 114 c0 82 4 116 13 120 19 8 86 -1 102 -14z m11 -415 c13 -19 15
-44 12 -119 -3 -85 -5 -96 -27 -115 -25 -22 -83 -37 -100 -26 -7 4 -11 58 -11
146 l0 139 55 0 c47 0 57 -3 71 -25z"/>
<path d="M1385 1581 c-5 -9 -54 -272 -154 -826 -17 -94 -31 -179 -31 -188 0
-15 13 -17 110 -17 81 0 110 3 111 13 0 6 6 50 13 97 l11 85 75 3 c41 1 81 -2
88 -6 7 -5 15 -38 18 -78 10 -125 -4 -114 139 -114 112 0 125 2 125 18 0 15
-40 225 -154 807 l-41 210 -152 3 c-92 1 -154 -1 -158 -7z m192 -397 c12 -115
22 -224 22 -241 l1 -33 -66 0 -67 0 7 73 c7 72 41 322 51 385 4 20 11 32 18
29 8 -2 20 -77 34 -213z"/>
<path d="M2137 1573 c-59 -20 -118 -76 -152 -142 l-25 -50 0 -308 c0 -285 2
-311 20 -352 32 -70 77 -118 138 -148 78 -38 200 -40 280 -4 114 51 177 168
170 316 l-3 70 -117 3 -118 3 0 -101 c0 -94 -2 -103 -25 -125 -37 -38 -76 -32
-100 16 -12 23 -15 84 -15 329 0 287 1 301 20 320 24 24 67 26 98 4 20 -14 22
-23 22 -110 l0 -94 121 0 122 0 -5 83 c-7 110 -24 159 -71 213 -61 69 -105 87
-217 91 -69 2 -108 -2 -143 -14z"/>
<path d="M3733 1582 l-23 -3 0 -510 0 -509 115 0 115 0 0 143 c0 137 1 144 26
180 14 21 27 37 29 35 1 -2 21 -68 45 -148 23 -80 46 -160 52 -177 l10 -33
124 0 c68 0 124 1 124 3 0 1 -45 139 -100 307 l-100 305 100 203 c56 114 94
202 87 202 -56 3 -239 1 -241 -2 -2 -1 -33 -84 -70 -183 -38 -99 -72 -187 -77
-195 -5 -9 -9 65 -9 182 l0 197 -92 3 c-51 2 -103 2 -115 0z"/>
<path d="M5329 1574 c-57 -17 -119 -76 -154 -143 l-25 -50 0 -300 c0 -300 0
-300 26 -358 32 -74 64 -107 139 -146 51 -27 71 -32 135 -32 62 0 85 5 132 28
62 30 115 83 150 149 22 41 23 55 26 296 4 268 -5 367 -38 432 -27 52 -94 108
-154 125 -62 19 -176 18 -237 -1z m171 -174 c19 -19 20 -33 20 -324 0 -292 -1
-304 -21 -330 -13 -17 -30 -26 -47 -26 -69 1 -72 15 -72 364 0 304 0 305 22
320 31 22 74 20 98 -4z"/>
<path d="M6005 1568 c-2 -13 -23 -126 -46 -253 -22 -126 -51 -288 -65 -360
-56 -303 -71 -390 -67 -398 2 -4 53 -7 112 -7 l108 0 12 93 c7 50 16 96 20
100 4 4 43 7 87 5 l79 -3 9 -97 9 -98 128 0 c71 0 129 4 129 9 0 4 -9 53 -20
107 -10 54 -38 196 -60 314 -69 360 -111 574 -116 593 -5 15 -21 17 -159 17
-152 0 -155 0 -160 -22z m179 -200 c12 -69 46 -451 42 -455 -5 -6 -126 -7
-131 -1 -4 3 53 456 60 476 8 23 24 12 29 -20z"/>
<path d="M2670 1065 l0 -515 120 0 120 0 0 220 0 220 70 0 70 0 0 -220 0 -220
115 0 115 0 0 515 0 515 -115 0 -115 0 0 -190 0 -190 -70 0 -70 0 0 190 0 190
-120 0 -120 0 0 -515z"/>
<path d="M4430 1065 l0 -515 120 0 120 0 0 220 0 221 68 -3 67 -3 3 -217 2
-218 115 0 115 0 0 515 0 515 -115 0 -115 0 -2 -187 -3 -188 -67 -3 -68 -3 0
191 0 190 -120 0 -120 0 0 -515z"/>
</g>
</svg>
